<?xml version="1.0" encoding="UTF-8"?>
<svg width="28px" height="44px" viewBox="0 0 28 44" version="1.1" xmlns="http://www.w3.org/2000/svg" xmlns:xlink="http://www.w3.org/1999/xlink">
    <!-- Generator: Sketch 61 (89581) - https://sketch.com -->
    <title>大客户2</title>
    <desc>Created with Sketch.</desc>
    <g id="页面-1" stroke="none" stroke-width="1" fill="none" fill-rule="evenodd">
        <g id="首页确认版" transform="translate(-1049.000000, -2796.000000)" fill="#FFFFFF" fill-rule="nonzero">
            <g id="大客户2" transform="translate(1049.000000, 2796.000000)">
                <path d="M12.071371,44.0000813 C13.3272072,44.0000813 23.8927324,38.4798924 23.8927324,37.1800433 C23.8927324,35.8820418 15.6693205,9.56541347 15.6693205,9.56541347 L22.0383279,1.77375206 C22.0383279,1.77375206 23.5233297,0.0430848158 20.5533262,0.0430848158 L3.71595895,0.0430848158 C0.744120722,0.0430848158 1.73504141,1.77283683 1.73504141,1.77283683 L8.47254925,9.56544355 C8.47254925,9.56544355 0.250039678,35.7280717 0.250039678,37.1809757 C0.250039678,38.6329774 10.8164543,44.0000813 12.0714011,44.0000813 L12.071371,44.0000813 Z" id="路径"></path>
                <path d="M24.6361356,30.1189374 L27.0359732,27.0490186 C27.487889,26.4706027 27.5245585,25.507182 27.1138898,24.9021813 L18.2332271,11.7855684 L24.6361369,30.1189374 L24.6361356,30.1189374 Z M13.151207,41.8862011 C17.6153775,39.9703641 20.7723811,38.3240317 22.6231333,36.9453477 C22.7331334,36.7253474 22.5699667,36.2761817 22.1354675,35.5996809 L13.151207,40.0583384 L13.151207,41.8862011 L13.151207,41.8862011 Z M13.5811357,39.0866978 C17.6419752,37.4146959 20.5129914,35.9773594 22.1959933,34.7746928 C22.2968269,34.5821926 22.1483268,34.1898574 21.7523276,33.6004414 L13.5811357,37.4907807 L13.5811357,39.0857826 L13.5811357,39.0866978 Z" id="形状"></path>
            </g>
        </g>
    </g>
</svg>