<?xml version="1.0" encoding="UTF-8"?>
<svg width="42px" height="44px" viewBox="0 0 42 44" version="1.1" xmlns="http://www.w3.org/2000/svg" xmlns:xlink="http://www.w3.org/1999/xlink">
    <!-- Generator: Sketch 61 (89581) - https://sketch.com -->
    <title>人</title>
    <desc>Created with Sketch.</desc>
    <g id="页面-1" stroke="none" stroke-width="1" fill="none" fill-rule="evenodd">
        <g id="首页确认版" transform="translate(-1334.000000, -2796.000000)" fill="#FFFFFF" fill-rule="nonzero">
            <g id="人" transform="translate(1334.000000, 2796.000000)">
                <path d="M21.4264909,0.913847548 L21.4264908,0.913847548 C18.7456287,0.917576252 16.5732937,3.08991649 16.5695554,5.77078289 L16.5695554,5.77073548 C16.5732578,8.45159759 18.7455771,10.6239755 21.4264477,10.6277138 L21.4264475,10.6277138 C24.1073096,10.6239853 26.2796445,8.45164915 26.2833829,5.77077845 L26.2833829,5.77082592 C26.2796804,3.08996381 24.1073612,0.917585893 21.4264905,0.913847548 L21.4264909,0.913847548 Z M32.8225042,5.53382705 L32.8225043,5.53382705 C30.6840675,5.52636265 28.9444498,7.25383383 28.9369361,9.3922707 C28.9369361,9.40131215 28.9369361,9.41035369 28.9369361,9.41939518 L28.9369361,9.41938921 C28.9294669,11.5578261 30.656937,13.2974437 32.7953739,13.3049612 C32.8044153,13.3049612 32.8134569,13.3049612 32.8224983,13.3049612 L32.8224985,13.3049612 C34.9680381,13.3040035 36.7071058,11.5649331 36.7080668,9.41939354 L36.7080668,9.41939909 C36.7155358,7.28096223 34.9880659,5.54134458 32.849629,5.53382705 C32.8405876,5.53382705 32.831546,5.53382705 32.8225045,5.53382705 L32.8225042,5.53382705 Z M14.1766231,25.2932704 L14.1055463,26.5252719 L14.1055463,26.5726566 L14.9347797,40.7880677 L11.2150824,40.7880677 L10.5990817,28.6812645 L9.01169388,28.6812645 L8.25353948,40.7880677 L4.77076785,40.7880677 L5.31568958,26.5726566 L5.05507392,20.8154389 L1.85660965,25.3880497 L0.292914864,24.1086623 L4.84184984,14.0631155 L7.49539239,14.0631155 L10.0304742,17.0720401 L12.4707841,14.0868042 L14.5083259,14.0868042 L15.479713,11.8597227 L20.5498595,11.8597227 L20.1707823,12.4994164 L20.6683224,13.5181851 L19.5784746,21.3366591 L21.2843231,23.0662006 L21.2843231,23.2083547 L21.3553999,23.1372778 L21.4264768,23.2083547 L21.4264768,23.0662006 L23.1323252,21.3366591 L22.0424775,13.5181851 L22.5400175,12.4994164 L22.1609403,11.8597227 L27.2784814,11.8597227 L27.9655611,14.0868042 L30.3347963,14.0868042 L32.8698782,17.0957288 L35.333881,14.0868042 L37.5846512,14.0868042 L41.8018886,23.4452799 L40.1197331,24.890514 L37.3003439,20.1520436 L36.9686514,26.5489808 L36.9686514,26.5963655 L37.7978848,40.8117766 L34.0781875,40.8117766 L33.4621867,28.7049734 L31.898492,28.7049734 L31.1403376,40.8117766 L27.6575659,40.8117766 L28.2024877,26.5963655 L28.1551029,25.5775967 L26.7098688,26.7859052 L27.3495626,43.7733195 L23.1797112,43.7733195 L22.2557101,29.2973026 L20.360322,29.2973026 L19.6258606,43.7733195 L15.2190664,43.7733195 L16.1904535,26.7859052 L14.1766047,25.2932894 L14.1766231,25.2932704 Z M9.9356971,5.53382866 L9.93569724,5.53382866 C7.79726038,5.52636265 6.05764273,7.25383383 6.05012952,9.3922707 C6.05012952,9.40131215 6.05012952,9.41035369 6.05012952,9.41939518 L6.05012952,9.4190458 C6.05089416,11.5645854 7.78980945,13.303812 9.93534476,13.3049378 L9.93534495,13.3049378 C12.0808846,13.3040039 13.8199522,11.5649335 13.8208889,9.41939385 C13.8449306,7.26339134 12.0916998,5.53382866 9.9356973,5.53382866 L9.9356971,5.53382866 Z" id="形状"></path>
            </g>
        </g>
    </g>
</svg>