<?xml version="1.0" encoding="UTF-8"?>
<svg width="64px" height="56px" viewBox="0 0 64 56" version="1.1" xmlns="http://www.w3.org/2000/svg" xmlns:xlink="http://www.w3.org/1999/xlink">
    <!-- Generator: Sketch 61 (89581) - https://sketch.com -->
    <title>编组 6</title>
    <desc>Created with Sketch.</desc>
    <g id="页面-1" stroke="none" stroke-width="1" fill="none" fill-rule="evenodd">
        <g id="首页确认版" transform="translate(-921.000000, -2473.000000)" fill="#E94E38">
            <g id="编组-6" transform="translate(921.000000, 2473.000000)">
                <path d="M31.6949364,29 C31.4891479,29 31.2807546,28.9545509 31.0905956,28.8560777 L15.7841014,21.0767004 C15.3568949,20.8595546 15.0885884,20.4328377 15.0859835,19.9631966 L15.0000212,1.26592656 C14.9974163,0.824059954 15.2344638,0.412492768 15.6252014,0.180197178 C16.015939,-0.044523555 16.5030585,-0.0621982194 16.9068207,0.14484785 L32.213315,7.9267501 C32.6405214,8.14389598 32.9088279,8.57061288 32.9114328,9.03772901 L33,27.7324741 C33,28.1743407 32.7655574,28.5859079 32.3748198,28.8156785 C32.1664265,28.9394012 31.9319839,29 31.6949364,29 L31.6949364,29 Z M17.6882959,19.1956111 L30.384663,25.6443387 L30.3117253,9.80783939 L17.6153582,3.35406192 L17.6882959,19.1956111 L17.6882959,19.1956111 Z" id="Fill-2"></path>
                <path d="M32.3022717,29 C32.0678628,29 31.8334539,28.9394012 31.627695,28.8156785 C31.2370135,28.5859079 31,28.1743407 31,27.7324741 L31.0885545,9.03772901 C31.091159,8.57061288 31.359427,8.14389598 31.7865721,7.9267501 L47.0908696,0.14484785 C47.4945739,-0.0621982194 47.984228,-0.044523555 48.372305,0.180197178 C48.7629865,0.412492768 49,0.824059954 49,1.26592656 L48.9114455,19.9631966 C48.908841,20.4328377 48.6431775,20.8595546 48.2160324,21.0767004 L32.9091304,28.8560777 C32.7189987,28.9545509 32.5106352,29 32.3022717,29 L32.3022717,29 Z M33.6878889,9.80783939 L33.6149617,25.6443387 L46.3121111,19.1956111 L46.3850383,3.35406192 L33.6878889,9.80783939 L33.6878889,9.80783939 Z" id="Fill-3"></path>
                <path d="M16.5012938,37 C16.2916961,37 16.0872736,36.9497347 15.8983769,36.8542307 L0.69089626,29.1108629 C0.266525523,28.8947221 0,28.4649539 0,28 C0,27.5325328 0.266525523,27.1027646 0.69089626,26.8866238 L15.8983769,19.1432561 C16.2735827,18.952248 16.7238297,18.952248 17.1016231,19.1432561 L32.3065161,26.8866238 C32.7334745,27.1027646 33,27.5325328 33,28 C33,28.4649539 32.7334745,28.8947221 32.3065161,29.1108629 L17.1016231,36.8542307 C16.9101388,36.9497347 16.7057163,37 16.5012938,37 L16.5012938,37 Z M4.0806869,28 L16.5012938,34.3233734 L28.9193131,28 L16.5012938,21.6741134 L4.0806869,28 L4.0806869,28 Z" id="Fill-4"></path>
                <path d="M16.6975413,56 C16.4891479,56 16.2807546,55.9520309 16.0905956,55.853568 L0.784101366,48.074999 C0.356894924,47.8578757 0.0885884388,47.4312031 0.0859835214,46.9641355 L2.12495585e-05,28.2688081 C-0.00258366777,27.8269874 0.234463809,27.415463 0.625201409,27.1857162 C1.01593901,26.9559695 1.50305855,26.9357719 1.90682074,27.1453212 L17.2159199,34.9238902 C17.6431263,35.1410135 17.9088279,35.5676861 17.9114328,36.0372784 L18,54.7326058 C18,55.1744265 17.7655574,55.5859509 17.3748198,55.8156977 C17.1664265,55.9394074 16.9319839,56 16.6975413,56 L16.6975413,56 Z M2.68829593,46.1941051 L15.384663,52.6446874 L15.3091204,36.8047841 L2.61275333,30.3567265 L2.68829593,46.1941051 L2.68829593,46.1941051 Z" id="Fill-5"></path>
                <path d="M16.3024799,56 C16.0654324,56 15.8309899,55.9394074 15.6252014,55.8156977 C15.2344638,55.5859509 14.9974163,55.1744265 15.0000212,54.7326058 L15.0859835,36.0372784 C15.0885884,35.5676861 15.3568949,35.1410135 15.7841014,34.9238902 L31.0905956,27.1453212 C31.4969627,26.9357719 31.9840822,26.9559695 32.3748198,27.1857162 C32.7655574,27.415463 33,27.8269874 33,28.2688081 L32.9114328,46.9641355 C32.9088279,47.4312031 32.6405214,47.8578757 32.213315,48.074999 L16.9068207,55.853568 C16.7166618,55.9520309 16.5082684,56 16.3024799,56 L16.3024799,56 Z M17.6882959,36.8047841 L17.6153582,52.6446874 L30.3117253,46.1941051 L30.384663,30.3567265 L17.6882959,36.8047841 L17.6882959,36.8047841 Z" id="Fill-6"></path>
                <path d="M46.5,37 C46.2930061,37 46.0885997,36.9497347 45.8997177,36.8542307 L30.6934295,29.1108629 C30.269092,28.8947221 30,28.4649539 30,28 C30,27.5325328 30.269092,27.1027646 30.6934295,26.8866238 L45.8997177,19.1432561 C46.2748942,18.952248 46.7251058,18.952248 47.1028697,19.1432561 L62.3065705,26.8866238 C62.730908,27.1027646 63,27.5325328 63,28 C63,28.4649539 62.730908,28.8947221 62.3065705,29.1108629 L47.1028697,36.8542307 C46.9114003,36.9497347 46.7069939,37 46.5,37 L46.5,37 Z M34.0829544,28 L46.5,34.3233734 L58.9196331,28 L46.5,21.6741134 L34.0829544,28 L34.0829544,28 Z" id="Fill-7"></path>
                <path d="M47.6951237,56 C47.4893648,56 47.2810013,55.9520309 47.0908696,55.853568 L31.7865721,48.074999 C31.359427,47.8578757 31.091159,47.4312031 31.0885545,46.9641355 L31,28.2688081 C31,27.8269874 31.2370135,27.415463 31.627695,27.1857162 C32.0183765,26.9559695 32.5054261,26.9357719 32.9091304,27.1453212 L48.2160324,34.9238902 C48.6431775,35.1410135 48.908841,35.5676861 48.9114455,36.0372784 L49,54.7326058 C49,55.1744265 48.7629865,55.5859509 48.372305,55.8156977 C48.1665461,55.9394074 47.9295326,56 47.6951237,56 L47.6951237,56 Z M33.6878889,46.1941051 L46.3850383,52.6446874 L46.3121111,36.8047841 L33.6149617,30.3567265 L33.6878889,46.1941051 L33.6878889,46.1941051 Z" id="Fill-8"></path>
                <path d="M47.299875,56 C47.0654324,56 46.8309899,55.9394074 46.6252014,55.8156977 C46.2344638,55.5859509 45.9974163,55.1744265 46.0000212,54.7326058 L46.0859835,36.0372784 C46.0859835,35.5676861 46.3568949,35.1410135 46.7841014,34.9238902 L62.0905956,27.1453212 C62.4969627,26.9357719 62.9840822,26.9559695 63.3748198,27.1857162 C63.7629525,27.415463 64,27.8269874 64,28.2688081 L63.9114328,46.9641355 C63.9088279,47.4312031 63.6405214,47.8578757 63.213315,48.074999 L47.9068207,55.853568 C47.7166618,55.9520309 47.5082684,56 47.299875,56 L47.299875,56 Z M48.685691,36.8047841 L48.6127533,52.6446874 L61.3117253,46.1941051 L61.384663,30.3567265 L48.685691,36.8047841 L48.685691,36.8047841 Z" id="Fill-9"></path>
            </g>
        </g>
    </g>
</svg>