<?xml version="1.0" encoding="UTF-8"?>
<svg width="55px" height="64px" viewBox="0 0 55 64" version="1.1" xmlns="http://www.w3.org/2000/svg" xmlns:xlink="http://www.w3.org/1999/xlink">
    <!-- Generator: Sketch 61 (89581) - https://sketch.com -->
    <title>编组 7</title>
    <desc>Created with Sketch.</desc>
    <g id="页面-1" stroke="none" stroke-width="1" fill="none" fill-rule="evenodd">
        <g id="首页确认版" transform="translate(-1365.000000, -2465.000000)" fill="#E94E38">
            <g id="编组-7" transform="translate(1365.000000, 2465.000000)">
                <path d="M16,59 C15.448,59 15,58.5053333 15,57.8958333 L15,7.10416667 C15,6.49466667 15.448,6 16,6 C16.552,6 17,6.49466667 17,7.10416667 L17,57.8958333 C17,58.5053333 16.552,59 16,59" id="Fill-1"></path>
                <path d="M9.9,53 L1.1,53 C0.4928,53 0,52.5072 0,51.9 L0,43.1 C0,42.4928 0.4928,42 1.1,42 L9.9,42 C10.5072,42 11,42.4928 11,43.1 L11,51.9 C11,52.5072 10.5072,53 9.9,53 L9.9,53 Z M2.2,50.8 L8.8,50.8 L8.8,44.2 L2.2,44.2 L2.2,50.8 Z" id="Fill-2"></path>
                <path d="M9.9,38 L1.1,38 C0.4928,38 0,37.5072 0,36.9 L0,28.1 C0,27.4928 0.4928,27 1.1,27 L9.9,27 C10.5072,27 11,27.4928 11,28.1 L11,36.9 C11,37.5072 10.5072,38 9.9,38 L9.9,38 Z M2.2,35.8 L8.8,35.8 L8.8,29.2 L2.2,29.2 L2.2,35.8 Z" id="Fill-3"></path>
                <path d="M53.8913043,64 L5.10869565,64 C4.49669565,64 4,63.5056552 4,62.8965517 L4,57.3793103 C4,56.7702069 4.49669565,56.2758621 5.10869565,56.2758621 C5.72069565,56.2758621 6.2173913,56.7702069 6.2173913,57.3793103 L6.2173913,61.7931034 L52.7826087,61.7931034 L52.7826087,2.20689655 L6.2173913,2.20689655 L6.2173913,4.4137931 C6.2173913,5.02289655 5.72069565,5.51724138 5.10869565,5.51724138 C4.49669565,5.51724138 4,5.02289655 4,4.4137931 L4,1.10344828 C4,0.494344828 4.49669565,0 5.10869565,0 L53.8913043,0 C54.5033043,0 55,0.494344828 55,1.10344828 L55,62.8965517 C55,63.5056552 54.5033043,64 53.8913043,64" id="Fill-4"></path>
                <path d="M9.9,20 L1.1,20 C0.4928,20 0,19.5072 0,18.9 L0,10.1 C0,9.4928 0.4928,9 1.1,9 L9.9,9 C10.5072,9 11,9.4928 11,10.1 L11,18.9 C11,19.5072 10.5072,20 9.9,20 L9.9,20 Z M2.2,17.8 L8.8,17.8 L8.8,11.2 L2.2,11.2 L2.2,17.8 Z" id="Fill-5"></path>
                <path d="M42.9166667,36 C42.7346667,36 42.5526667,35.9541401 42.388,35.8624204 L37.5,33.110828 L32.612,35.8624204 C32.2761667,36.0502275 31.8666667,36.0436761 31.5351667,35.8515014 C31.2036667,35.6549591 31,35.2968153 31,34.9080983 L31,1.09190173 C31,0.489171975 31.4853333,0 32.0833333,0 L42.9166667,0 C43.5146667,0 44,0.489171975 44,1.09190173 L44,34.9080983 C44,35.2968153 43.7963333,35.6549591 43.4648333,35.8515014 C43.2958333,35.9497725 43.1073333,36 42.9166667,36 L42.9166667,36 Z M37.5,30.7697907 C37.682,30.7697907 37.864,30.8156506 38.0265,30.9073703 L41.8333333,33.0496815 L41.8333333,2.18380346 L33.1666667,2.18380346 L33.1666667,33.0496815 L36.9713333,30.9073703 C37.136,30.8156506 37.318,30.7697907 37.5,30.7697907 L37.5,30.7697907 Z" id="Fill-6"></path>
            </g>
        </g>
    </g>
</svg>