<?xml version="1.0" encoding="UTF-8"?>
<svg width="40px" height="34px" viewBox="0 0 40 34" version="1.1" xmlns="http://www.w3.org/2000/svg" xmlns:xlink="http://www.w3.org/1999/xlink">
    <!-- Generator: Sketch 61 (89581) - https://sketch.com -->
    <title>线上</title>
    <desc>Created with Sketch.</desc>
    <g id="页面-1" stroke="none" stroke-width="1" fill="none" fill-rule="evenodd">
        <g id="首页确认版" transform="translate(-439.000000, -2801.000000)" fill="#FFFFFF" fill-rule="nonzero">
            <g id="线上" transform="translate(439.000000, 2801.000000)">
                <path d="M36.0476885,0.0145861953 L3.64880204,0.0145861953 C1.94804982,0.0145861953 0.556524374,1.40611164 0.556524374,3.10686386 L0.556524374,23.0170516 C0.556524374,24.7178038 1.94804982,26.1093292 3.64880204,26.1093292 L36.0476885,26.1093292 C37.7484407,26.1093292 39.1399661,24.7178038 39.1399661,23.0170516 L39.1399661,3.10686386 C39.1399661,1.40611164 37.7484407,0.0145861953 36.0476885,0.0145861953 Z M19.0780801,18.2823424 L14.0049838,13.1158917 L15.3060749,12.0686034 L18.2437375,14.370309 C19.4427241,12.9437765 22.1149338,10.0965615 25.793568,7.84152315 L26.1027957,8.56208116 C22.7246449,11.6718624 19.9532475,16.0447976 19.0780711,18.2823424 L19.0780801,18.2823424 Z" id="形状"></path>
                <path d="M19.8802225,33.4635918 C19.0283864,33.4635918 18.3340854,32.7663441 18.3340854,31.917428 L18.3340854,25.9050012 C18.3340854,25.0531651 19.0313064,24.358864 19.8802225,24.358864 C20.7320586,24.358864 21.4263688,25.0560851 21.4263688,25.9050012 L21.4263688,31.9145346 C21.4292769,32.7663707 20.7320553,33.4635918 19.8802225,33.4635918 L19.8802225,33.4635918 Z" id="路径"></path>
                <path d="M11.8023928,32.4514003 C11.8023928,31.5995642 12.4996139,30.9052632 13.34853,30.9052632 L26.3535877,30.9052632 C27.2054238,30.9052632 27.8997249,31.6024842 27.8997249,32.4514003 C27.8997249,33.3032364 27.2025038,33.9975466 26.3535877,33.9975466 L13.34853,33.9975466 C12.4966939,34.0004547 11.8023928,33.3032331 11.8023928,32.4514003 Z" id="路径"></path>
            </g>
        </g>
    </g>
</svg>