<?xml version="1.0" encoding="UTF-8"?>
<svg width="37px" height="62px" viewBox="0 0 37 62" version="1.1" xmlns="http://www.w3.org/2000/svg" xmlns:xlink="http://www.w3.org/1999/xlink">
    <!-- Generator: Sketch 61 (89581) - https://sketch.com -->
    <title>编组 5</title>
    <desc>Created with Sketch.</desc>
    <g id="页面-1" stroke="none" stroke-width="1" fill="none" fill-rule="evenodd">
        <g id="首页确认版" transform="translate(-495.000000, -2466.000000)" fill="#E94E38">
            <g id="编组-5" transform="translate(495.000000, 2466.000000)">
                <path d="M10.5534497,41.9988032 C10.0805727,41.9988032 9.6273989,41.7245838 9.42544101,41.2576696 C8.57820303,39.3208406 6.12269062,33.9303293 4.95773839,32.3121877 C-1.69948332,23.0653114 -1.6477624,12.3164044 5.08580925,5.56220731 C12.4794384,-1.8540691 24.5131732,-1.8540691 31.9068024,5.56220731 C38.6502256,12.3262862 38.7019466,23.0776636 32.0348732,32.3121877 C30.8649952,33.9327997 28.3922425,39.3233111 27.5376158,41.2626105 C27.2642338,41.8876332 26.537678,42.1717344 25.914564,41.8925741 C25.2939129,41.6183546 25.0106793,40.8895733 25.2840613,40.2645507 C25.414595,39.9705677 28.478444,33.0261463 30.0374604,30.8645068 C34.6135307,24.5278149 37.3916832,14.5570982 30.1655313,7.30881205 C23.7299707,0.858479698 13.2626409,0.858479698 6.82708034,7.30881205 C-0.389219929,14.5472164 2.38646963,24.522874 6.95515119,30.8645068 C8.5117047,33.0286168 11.5509247,39.9730382 11.6814584,40.2694916 C11.9548405,40.8945142 11.6716068,41.6208251 11.0460299,41.8950445 C10.8859414,41.964217 10.7184641,41.9988032 10.5534497,41.9988032" id="Fill-1"></path>
                <path d="M10.2134646,48 C9.60774583,48 9.08230308,47.5806719 9.00932492,47.0102955 C8.92661634,46.3903212 9.40340698,45.8289626 10.0699408,45.7545657 L25.6386148,44.0073653 C26.2978508,43.9374773 26.9108674,44.3725866 26.9911433,44.988052 C27.0714193,45.6057719 26.5970613,46.1671304 25.9305274,46.2437818 L10.3618535,47.9909822 C10.3132014,47.9977455 10.2645493,48 10.2134646,48" id="Fill-2"></path>
                <path d="M10.2134646,54 C9.60774583,54 9.08230308,53.581146 9.00932492,53.0114144 C8.92661634,52.3943929 9.40340698,51.831417 10.0699408,51.7571042 L25.6386148,50.0118791 C26.2978508,49.9195511 26.9108674,50.3766874 26.9911433,50.9914571 C27.0714193,51.6107305 26.5970613,52.1714544 25.9305274,52.2457673 L10.3618535,53.9909924 C10.3132014,53.9977481 10.2645493,54 10.2134646,54" id="Fill-3"></path>
                <path d="M18,62 C15.2428571,62 13,59.8284615 13,57.1538462 C13,56.5169231 13.5333333,56 14.1904762,56 C14.85,56 15.3809524,56.5169231 15.3809524,57.1538462 C15.3809524,58.5546154 16.5571429,59.6923077 18,59.6923077 C19.4452381,59.6923077 20.6190476,58.5546154 20.6190476,57.1538462 C20.6190476,56.5169231 21.152381,56 21.8095238,56 C22.4666667,56 23,56.5169231 23,57.1538462 C23,59.8284615 20.7571429,62 18,62" id="Fill-4"></path>
                <path d="M8.2,20 C7.5376,20 7,19.4648 7,18.8 C7,12.8456 11.8456,8 17.8,8 C18.4624,8 19,8.5376 19,9.2 C19,9.8648 18.4624,10.4 17.8,10.4 C13.168,10.4 9.4,14.1704 9.4,18.8 C9.4,19.4648 8.8624,20 8.2,20" id="Fill-5"></path>
            </g>
        </g>
    </g>
</svg>