<?xml version="1.0" encoding="UTF-8"?>
<svg width="42px" height="44px" viewBox="0 0 42 44" version="1.1" xmlns="http://www.w3.org/2000/svg" xmlns:xlink="http://www.w3.org/1999/xlink">
    <!-- Generator: Sketch 61 (89581) - https://sketch.com -->
    <title>方法</title>
    <desc>Created with Sketch.</desc>
    <g id="页面-1" stroke="none" stroke-width="1" fill="none" fill-rule="evenodd">
        <g id="首页确认版" transform="translate(-746.000000, -2796.000000)" fill="#FFFFFF" fill-rule="nonzero">
            <g id="方法" transform="translate(746.000000, 2796.000000)">
                <path d="M24.1878938,42.1818264 L24.1878937,42.1818264 C24.6986467,42.1772199 25.1196077,42.5813087 25.1358886,43.091824 L25.1358886,43.0918237 C25.1293066,43.596793 24.7169003,44.0020575 24.2118918,43.9998189 L17.8119039,43.9998189 L17.8119039,43.9998189 C17.3127612,44.01087 16.8991693,43.6151948 16.8881177,43.1160538 C16.8878962,43.107978 16.8878962,43.0999002 16.8878962,43.0918225 L16.8878962,43.0918242 C16.8933979,42.5860728 17.3061227,42.1795966 17.8118985,42.1818267 L24.1878938,42.1818264 Z M25.5738868,39.5018274 L25.5738868,39.5018274 C26.0788948,39.499598 26.4913008,39.9048633 26.4978836,40.4098318 L26.4978836,40.4098301 C26.4923919,40.9155814 26.0796674,41.3220577 25.5738911,41.3198276 L16.4479196,41.3198276 L16.4479196,41.3198276 C15.9487768,41.3308851 15.5351806,40.9352152 15.5241248,40.4360754 C15.523903,40.4273291 15.523903,40.4185805 15.523903,40.4098323 L15.523903,40.4098328 C15.5305063,39.9048634 15.9429128,39.4995989 16.4479212,39.5018274 L25.5738868,39.5018274 Z M20.999901,7.17997476 C28.5778786,7.17997476 34.6758388,13.1999466 34.7218584,20.6738967 C34.7218584,25.4658632 32.1578714,29.6678681 28.3218704,32.0538396 L28.3218704,36.7778295 L28.3218704,36.7778308 C28.310882,37.7757597 27.4958511,38.5773857 26.4978749,38.5718625 L15.5479208,38.5718625 L15.5479208,38.5718625 C14.5491669,38.5784887 13.7329186,37.776546 13.7219272,36.7778308 L13.7219272,32.0298644 L13.7219268,32.0298641 C9.74947416,29.6127359 7.32400142,25.2999618 7.32193892,20.6499212 C7.32193892,13.1779477 13.4219187,7.17997476 20.9998962,7.17997476 L20.999901,7.17997476 Z M26.2198797,23.6038962 C25.919881,23.2838977 25.3198853,23.2838977 24.9958834,23.6038962 L20.9758986,27.5098804 L16.9559139,23.6038962 C16.6559151,23.2838977 16.0559194,23.2838977 15.7319175,23.6038962 C15.4099188,23.8978948 15.4099188,24.4658933 15.7319175,24.8078906 L20.0758913,29.031874 L20.0758913,36.7998596 L21.8758844,36.7998596 L21.8758844,29.0298975 L26.2218778,24.805914 C26.5438765,24.5099153 26.5438765,23.9419189 26.2218778,23.6019197 L26.2198797,23.6038962 Z M7.94795611,31.6898509 C8.36395425,31.3258524 8.93995101,31.3258524 9.26394865,31.6898509 L9.26394873,31.689851 C9.61011011,32.0517304 9.61011011,32.6219646 9.26394858,32.9838435 L7.48395745,34.7338382 L7.48395743,34.7338382 C7.11125594,35.0740484 6.54066336,35.0740484 6.16796488,34.7338381 L6.16796482,34.7338381 C5.82180344,34.3719587 5.82180344,33.8017245 6.16796493,33.4398456 L7.94795611,31.6898509 Z M32.6878443,31.6898509 L32.6878443,31.6898509 C33.0611319,31.3471996 33.6345501,31.3471996 34.0078373,31.689851 L35.7858304,33.4398456 L35.7858304,33.4398457 C36.1319918,33.8017251 36.1319918,34.3719593 35.7858303,34.7338382 L35.7858303,34.7338382 C35.4128349,35.0752674 34.8408304,35.0752674 34.4678354,34.7338382 L32.6878443,32.9838436 L32.6878442,32.9838436 C32.3416828,32.6219642 32.3416828,32.05173 32.6878443,31.689851 L32.6878443,31.6898509 Z M4.57597953,19.2859083 C5.08397817,19.2859083 5.47597393,19.6939167 5.49997631,20.1939137 L5.49997631,20.1939134 C5.49339435,20.6988827 5.08098797,21.1041473 4.57597953,21.1019086 L0.923996766,21.1019086 L0.923996738,21.1019086 C0.424853969,21.1129596 0.011262082,20.7172845 0.000210506602,20.2181435 C-1.0974998e-05,20.2100677 -1.0974998e-05,20.20199 -1.0974998e-05,20.1939123 L-1.0974998e-05,20.1939127 C0.00658079398,19.6889434 0.418987215,19.2836789 0.923995654,19.2859083 L4.57597953,19.2859083 Z M41.0778033,19.2859083 L41.0778032,19.2859083 C41.5828112,19.2836799 41.9952172,19.6889453 42.0018,20.1939137 L42.0018,20.1939134 C41.995218,20.6988827 41.5828117,21.1041473 41.0778032,21.1019086 L37.4278185,21.1019086 L37.4278185,21.1019086 C36.9286758,21.1129597 36.5150839,20.7172845 36.5040323,20.2181435 C36.5038108,20.2100677 36.5038108,20.2019899 36.5038108,20.1939123 L36.5038108,20.1939127 C36.5104026,19.6889434 36.922809,19.2836788 37.4278175,19.2859083 L41.0778033,19.2859083 Z M17.4679086,12.0859375 L17.4679086,12.0859375 C17.1178396,11.5833787 16.4307019,11.4519887 15.9199146,11.7899388 L15.9199149,11.7899385 C13.4140175,13.4579788 11.5680778,15.9475094 10.6999362,18.8299038 C10.5139371,19.4219021 10.8599357,20.0118981 11.4599339,20.1938968 C11.5759334,20.2158967 11.667933,20.2398966 11.7839324,20.2398966 L11.7839325,20.2398966 C12.275487,20.2400447 12.7081527,19.9157498 12.8459279,19.4438996 L12.8459278,19.4438997 C13.5767669,17.0612411 15.112184,15.0062539 17.1899016,13.6299203 L17.1899016,13.6299203 C17.6898436,13.3005735 17.8281386,12.6283004 17.4987901,12.1283627 C17.4888649,12.1132965 17.4785652,12.0984805 17.4679005,12.0839282 L17.4679086,12.0859375 Z M6.21395018,5.67598082 L6.2139501,5.6759809 C6.5869455,5.33455167 7.15895003,5.33455167 7.531945,5.67598075 L9.31193613,7.42597537 L9.31193621,7.42597545 C9.65809759,7.78785481 9.65809759,8.35808903 9.31193606,8.71996797 L9.31193608,8.71996795 C8.9386485,9.0626192 8.36523029,9.0626192 7.99194314,8.719968 L6.21395005,6.97197573 L6.21395006,6.97197573 C5.86651121,6.60983511 5.86651121,6.03812191 6.21395005,5.67598086 L6.21395018,5.67598082 Z M34.4678268,5.65598091 L34.4678267,5.65598098 C34.8408221,5.31455176 35.4128267,5.31455176 35.7858216,5.65598084 L35.7858216,5.6559808 C36.1307094,6.01759677 36.1307094,6.58635845 35.7858217,6.94797527 L34.0058305,8.69796989 L34.0058305,8.69796993 C33.633129,9.03818013 33.0625364,9.03818013 32.6898379,8.69796985 L32.6898379,8.69796979 C32.3436765,8.33609042 32.3436765,7.76585621 32.689838,7.40397727 L34.4678268,5.65598091 Z M20.999901,-1.14639184e-05 L20.999901,-1.14639184e-05 C21.504909,-0.0022408059 21.917315,0.403024484 21.9238978,0.907992963 L21.9238978,4.49997839 L21.9238978,4.49997809 C21.9173158,5.00494742 21.5049095,5.41021196 20.999901,5.40798251 L20.999901,5.40798251 C20.5012954,5.39480253 20.097784,4.99827566 20.0759042,4.49997809 L20.0759042,0.907992658 C20.0759042,0.387992834 20.4919024,-1.14639184e-05 20.999901,-1.14639184e-05 L20.999901,-1.14639184e-05 Z" id="形状"></path>
            </g>
        </g>
    </g>
</svg>